<svg xmlns="http://www.w3.org/2000/svg" viewBox="0 0 64 64" role="img" aria-label="글또 북클럽">
  <defs>
    <linearGradient id="bg" x1="12" y1="6" x2="52" y2="58" gradientUnits="userSpaceOnUse">
      <stop offset="0" stop-color="#FFF7D6"/>
      <stop offset="0.52" stop-color="#F2B44A"/>
      <stop offset="1" stop-color="#9A5A10"/>
    </linearGradient>
    <linearGradient id="cover" x1="18" y1="18" x2="48" y2="50" gradientUnits="userSpaceOnUse">
      <stop offset="0" stop-color="#C8782A"/>
      <stop offset="1" stop-color="#6B3A1A"/>
    </linearGradient>
  </defs>

  <rect width="64" height="64" rx="14" fill="url(#bg)"/>
  <path
    d="M16 18.5c0-1.5 1.3-2.7 2.8-2.4 5.8 1 9.8 3 13.2 6 3.4-3 7.4-5 13.2-6 1.5-.3 2.8.9 2.8 2.4v28.4c0 1.2-.9 2.2-2.1 2.4-5.2.8-9.1 2.2-12.4 4.7-.9.7-2.1.7-3 0-3.3-2.5-7.2-3.9-12.4-4.7-1.2-.2-2.1-1.2-2.1-2.4V18.5Z"
    fill="#FFF8E4"
  />
  <path
    d="M18.5 19.4c5.1.9 8.6 2.6 11.6 5.3v24.9c-3.1-2-6.6-3.1-11.6-3.9V19.4Z"
    fill="url(#cover)"
  />
  <path
    d="M45.5 19.4c-5.1.9-8.6 2.6-11.6 5.3v24.9c3.1-2 6.6-3.1 11.6-3.9V19.4Z"
    fill="#F5EDD8"
  />
  <path d="M32 23.5v28" stroke="#6B3A1A" stroke-width="2.2" stroke-linecap="round"/>
  <path d="M38.5 28h4.2M38.5 34h4.2M38.5 40h3.1" stroke="#C8782A" stroke-width="2.3" stroke-linecap="round"/>
  <path
    d="M24.7 29.2c-2.9.3-4.7 2.1-4.7 4.8 0 2.4 1.5 4.2 3.7 4.2 1.8 0 3.1-1.2 3.1-2.9 0-1.6-1.1-2.6-2.6-2.6-.6 0-1 .1-1.4.3.2-1.4 1.1-2.3 2.7-2.6l-.8-1.2Zm6.3 0c-2.9.3-4.7 2.1-4.7 4.8 0 2.4 1.5 4.2 3.7 4.2 1.8 0 3.1-1.2 3.1-2.9 0-1.6-1.1-2.6-2.6-2.6-.6 0-1 .1-1.4.3.2-1.4 1.1-2.3 2.7-2.6l-.8-1.2Z"
    fill="#FFF8E4"
  />
</svg>
